# xmcd
#
# Track frame offsets: 
#        150
#        17646
#        38458
#        57591
#        75997
#        100303
#        132820
#        151467
#        168166
#        186653
#        201878
#
# Disc length: 2929 seconds
#
# Revision: 0
# Processed by: cddbd v1.5.2PL0 Copyright (c) Steve Scherf et al.
# Submitted via: ExactAudioCopy v0.95b4
#
DISCID=880b6f0b
DTITLE=Last Train Home - Last Good Kiss
DYEAR=2007
DGENRE=Americana
TTITLE0=Last Good Kiss
TTITLE1=Flood
TTITLE2=Anywhere But Here
TTITLE3=Can't Come Undone
TTITLE4=Go Now
TTITLE5=May
TTITLE6=You
TTITLE7=I'm Coming Home
TTITLE8=Kissing Booth
TTITLE9=Marking Time
TTITLE10=The Color Blue
EXTD=
EXTT0=
EXTT1=
EXTT2=
EXTT3=
EXTT4=
EXTT5=
EXTT6=
EXTT7=
EXTT8=
EXTT9=
EXTT10=
PLAYORDER=
